<?xml version="1.0" encoding="UTF-8"?><svg id="Calque_1" xmlns="http://www.w3.org/2000/svg" width="278.42" height="59.35" viewBox="0 0 278.42 59.35"><defs><style>.cls-1,.cls-2{fill:#00707f;}.cls-3,.cls-4{fill:#f07f3c;}.cls-5{fill:#f8aa00;}.cls-5,.cls-6,.cls-7,.cls-8,.cls-9,.cls-10,.cls-11,.cls-12,.cls-13,.cls-14,.cls-15,.cls-16,.cls-4,.cls-17,.cls-18,.cls-19,.cls-2,.cls-20{fill-rule:evenodd;}.cls-6{fill:#289b38;}.cls-7{fill:#5b257d;}.cls-8{fill:#5b57a2;}.cls-9{fill:#5fa4b0;}.cls-10{fill:#1fbadb;}.cls-11{fill:#c6c0b4;}.cls-12{fill:#a8589e;}.cls-13{fill:#7db928;}.cls-14{fill:#b9cd76;}.cls-15{fill:#8da6d6;}.cls-16{fill:#8c8b82;}.cls-17{fill:#e62d31;}.cls-18{fill:#ffd000;}.cls-19{fill:#005ca9;}.cls-20{fill:#00843b;}</style></defs><path class="cls-1" d="M86.34,6.05h1.73v4.4c0,1.22,.35,1.67,1.14,1.67,.65,0,1.08-.3,1.64-1.02V6.05h1.73v7.37h-1.41l-.14-1.08h-.05c-.65,.77-1.37,1.26-2.37,1.26-1.58,0-2.27-1.07-2.27-2.93V6.05Z"/><path class="cls-1" d="M94.56,6.05h1.43l.12,.99h.06c.66-.65,1.41-1.17,2.42-1.17,1.58,0,2.27,1.07,2.27,2.93v4.62h-1.73v-4.4c0-1.22-.35-1.67-1.16-1.67-.65,0-1.07,.32-1.68,.92v5.15h-1.73V6.05Z"/><rect class="cls-1" x="103.07" y="6.05" width="1.73" height="7.37"/><path class="cls-1" d="M106.09,6.05h1.76l1.17,3.83c.2,.72,.42,1.47,.62,2.22h.06c.21-.75,.42-1.5,.63-2.22l1.17-3.83h1.67l-2.51,7.37h-2l-2.57-7.37Z"/><path class="cls-1" d="M117.08,5.87c2,0,3.05,1.44,3.05,3.5,0,.33-.03,.63-.08,.81h-4.68c.15,1.34,.99,2.09,2.18,2.09,.63,0,1.17-.19,1.71-.54l.59,1.08c-.71,.47-1.59,.8-2.52,.8-2.04,0-3.63-1.43-3.63-3.86s1.67-3.87,3.39-3.87Zm1.55,3.21c0-1.17-.5-1.88-1.5-1.88-.87,0-1.62,.65-1.77,1.88h3.27Z"/><path class="cls-1" d="M121.93,6.05h1.43l.12,1.31h.06c.53-.96,1.31-1.49,2.09-1.49,.38,0,.62,.05,.84,.15l-.3,1.5c-.26-.07-.45-.12-.77-.12-.59,0-1.29,.41-1.74,1.52v4.5h-1.73V6.05Z"/><path class="cls-1" d="M127.53,11.47c.66,.51,1.29,.83,2.04,.83,.8,0,1.17-.38,1.17-.89,0-.62-.8-.89-1.58-1.19-.98-.36-2.07-.92-2.07-2.15,0-1.29,1.04-2.21,2.69-2.21,1.02,0,1.85,.42,2.45,.89l-.8,1.05c-.51-.38-1.04-.63-1.62-.63-.74,0-1.08,.35-1.08,.81,0,.57,.74,.81,1.53,1.1,1.01,.38,2.12,.86,2.12,2.24,0,1.26-1.01,2.28-2.87,2.28-1.01,0-2.07-.44-2.79-1.02l.81-1.11Z"/><rect class="cls-1" x="134.09" y="6.05" width="1.73" height="7.37"/><path class="cls-1" d="M138.47,7.42h-1.05v-1.29l1.14-.08,.21-2.01h1.44v2.01h1.88v1.37h-1.88v3.51c0,.87,.33,1.29,1.04,1.29,.26,0,.56-.08,.77-.17l.3,1.28c-.41,.14-.92,.27-1.5,.27-1.71,0-2.34-1.08-2.34-2.67v-3.51Z"/><path class="cls-1" d="M146.59,5.87c2,0,3.05,1.44,3.05,3.5,0,.33-.03,.63-.08,.81h-4.68c.15,1.34,.99,2.09,2.18,2.09,.63,0,1.17-.19,1.71-.54l.59,1.08c-.71,.47-1.59,.8-2.52,.8-2.04,0-3.63-1.43-3.63-3.86s1.67-3.87,3.39-3.87Zm1.55,3.21c0-1.17-.5-1.88-1.5-1.88-.87,0-1.62,.65-1.77,1.88h3.27Z"/><path class="cls-1" d="M102.88,3.98c0-.59,.45-.99,1.07-.99s1.07,.41,1.07,.99-.45,.98-1.07,.98-1.07-.41-1.07-.98"/><path class="cls-1" d="M133.89,3.98c0-.59,.45-.99,1.07-.99s1.07,.41,1.07,.99-.45,.98-1.07,.98-1.07-.41-1.07-.98"/><polygon class="cls-1" points="146.77 5.18 145.49 5.18 146.83 2.99 148.56 2.99 146.77 5.18"/><polygon class="cls-1" points="45.46 3.02 47.81 3.02 47.81 11.44 51.92 11.44 51.92 13.41 45.46 13.41 45.46 3.02"/><rect class="cls-1" x="53.45" y="3.02" width="2.34" height="10.4"/><polygon class="cls-1" points="57.64 3.02 64.14 3.02 64.14 4.99 59.98 4.99 59.98 7.08 63.52 7.08 63.52 9.04 59.98 9.04 59.98 11.44 64.3 11.44 64.3 13.41 57.64 13.41 57.64 3.02"/><polygon class="cls-1" points="58.42 0 60.9 0 62.2 1.91 60.33 1.91 58.42 0"/><path class="cls-1" d="M65.1,8.28c0-.86,.14-1.63,.41-2.3,.27-.68,.64-1.25,1.1-1.71,.46-.47,1-.82,1.63-1.07,.62-.24,1.28-.37,1.99-.37s1.37,.14,1.91,.41c.54,.28,.98,.59,1.32,.94l-1.29,1.45c-.26-.24-.52-.44-.81-.57-.28-.14-.65-.21-1.09-.21-.4,0-.77,.08-1.11,.23-.33,.15-.62,.37-.87,.66-.24,.29-.43,.64-.57,1.05-.13,.41-.2,.88-.2,1.4,0,1.07,.24,1.91,.73,2.5,.48,.59,1.21,.88,2.19,.88,.21,0,.42-.03,.62-.08,.2-.05,.37-.13,.49-.24v-1.79h-1.72v-1.91h3.8v4.78c-.37,.35-.86,.65-1.47,.89-.61,.24-1.28,.37-2.01,.37s-1.36-.11-1.97-.34-1.15-.57-1.6-1.01c-.46-.45-.82-1-1.08-1.67-.26-.66-.39-1.43-.39-2.3"/><polygon class="cls-1" points="75.15 3.02 81.65 3.02 81.65 4.99 77.49 4.99 77.49 7.08 81.03 7.08 81.03 9.04 77.49 9.04 77.49 11.44 81.81 11.44 81.81 13.41 75.15 13.41 75.15 3.02"/><g><path class="cls-3" d="M45.48,20.61h5.01c2.89,0,5.32,1.01,5.32,4.29,0,1.99-.94,3.27-2.35,3.94l3.04,5.4h-3.64l-2.51-4.8h-1.59v4.8h-3.27v-13.64Zm4.75,6.26c1.55,0,2.39-.67,2.39-1.97s-.84-1.72-2.39-1.72h-1.49v3.69h1.49Z"/><path class="cls-3" d="M57.59,29.03c0-3.46,2.45-5.45,5.09-5.45s5.11,1.99,5.11,5.45-2.45,5.47-5.11,5.47-5.09-2.01-5.09-5.47Zm6.87,0c0-1.72-.57-2.85-1.78-2.85s-1.78,1.13-1.78,2.85,.57,2.85,1.78,2.85,1.78-1.11,1.78-2.85Z"/><path class="cls-3" d="M72.71,33.13h-.08l-.25,1.11h-2.53v-14.64h3.23v3.52l-.06,1.57c.77-.69,1.72-1.11,2.68-1.11,2.51,0,4.08,2.07,4.08,5.28,0,3.58-2.12,5.63-4.36,5.63-.94,0-1.89-.46-2.7-1.36Zm3.73-4.23c0-1.82-.54-2.68-1.7-2.68-.61,0-1.11,.27-1.68,.88v4.13c.52,.46,1.07,.61,1.57,.61,1.01,0,1.8-.82,1.8-2.93Z"/><path class="cls-3" d="M81.3,29.03c0-3.46,2.45-5.45,5.09-5.45s5.11,1.99,5.11,5.45-2.45,5.47-5.11,5.47-5.09-2.01-5.09-5.47Zm6.87,0c0-1.72-.57-2.85-1.78-2.85s-1.78,1.13-1.78,2.85,.57,2.85,1.78,2.85,1.78-1.11,1.78-2.85Z"/><path class="cls-3" d="M93.97,30.39v-4.02h-1.4v-2.43l1.59-.1,.38-3.18h2.68v3.18h2.45v2.53h-2.45v3.98c0,1.17,.54,1.61,1.32,1.61,.33,0,.69-.04,.96-.15l.5,2.26c-.54,.21-1.34,.42-2.37,.42-2.6,0-3.67-1.65-3.67-4.11Z"/><path class="cls-3" d="M101.47,20.69c0-1.01,.75-1.65,1.82-1.65s1.82,.65,1.82,1.65-.75,1.68-1.82,1.68-1.82-.65-1.82-1.68Zm.21,3.14h3.23v10.41h-3.23v-10.41Z"/><path class="cls-3" d="M106.96,29.03c0-3.46,2.58-5.45,5.47-5.45,1.28,0,2.26,.44,3.04,1.11l-1.51,1.99c-.48-.36-.88-.5-1.34-.5-1.45,0-2.35,1.13-2.35,2.85s.96,2.85,2.24,2.85c.69,0,1.28-.25,1.8-.65l1.26,2.03c-1.01,.92-2.33,1.24-3.44,1.24-2.93,0-5.17-2.01-5.17-5.47Z"/><path class="cls-3" d="M116.47,32.92l1.36-1.82c.96,.75,1.91,1.01,2.72,1.01,.88,0,1.24-.31,1.24-.82,0-.63-.88-.9-1.99-1.32-1.49-.54-2.74-1.49-2.74-3.1,0-1.97,1.59-3.29,4.02-3.29,1.53,0,2.83,.57,3.73,1.32l-1.38,1.82c-.75-.54-1.53-.75-2.24-.75-.75,0-1.11,.29-1.11,.75,0,.54,.59,.8,1.91,1.21,1.59,.5,2.85,1.45,2.85,3.16,0,1.91-1.51,3.39-4.34,3.39-1.38,0-2.97-.54-4.02-1.57Z"/><path class="cls-3" d="M130.44,31.33c0-2.2,1.7-3.39,5.8-3.81-.08-.86-.52-1.36-1.59-1.36-.84,0-1.68,.29-2.72,.88l-1.13-2.09c1.36-.84,2.85-1.36,4.48-1.36,2.68,0,4.19,1.49,4.19,4.75v5.91h-2.64l-.23-1.05h-.08c-.86,.77-1.8,1.3-2.97,1.3-1.91,0-3.1-1.42-3.1-3.16Zm5.8-.17v-1.65c-2.07,.27-2.7,.84-2.7,1.57,0,.61,.4,.9,1.11,.9,.65,0,1.09-.31,1.59-.82Z"/><path class="cls-3" d="M142,23.83h2.64l.23,1.3h.08c.86-.84,1.91-1.55,3.33-1.55,2.26,0,3.23,1.61,3.23,4.21v6.45h-3.25v-6.03c0-1.45-.38-1.89-1.21-1.89-.73,0-1.17,.36-1.82,.94v6.98h-3.23v-10.41Z"/><path class="cls-3" d="M153.52,29.03c0-3.39,2.14-5.45,4.29-5.45,1.15,0,1.84,.42,2.51,1.07l-.1-1.55v-3.5h3.25v14.64h-2.66l-.23-1.01h-.06c-.73,.73-1.76,1.26-2.74,1.26-2.58,0-4.25-2.07-4.25-5.47Zm6.7,1.95v-4.15c-.5-.44-1.11-.61-1.63-.61-.92,0-1.74,.84-1.74,2.79s.67,2.83,1.78,2.83c.63,0,1.11-.21,1.59-.86Z"/><path class="cls-3" d="M173.04,20.61h3.9l4.25,13.64h-3.44l-.8-3.14h-4.04l-.8,3.14h-3.33l4.25-13.64Zm.5,7.98h2.79l-.29-1.17c-.36-1.34-.71-2.95-1.07-4.38h-.08c-.34,1.42-.69,3.04-1.05,4.38l-.29,1.17Z"/><path class="cls-3" d="M182.24,30.28v-6.45h3.25v6.03c0,1.45,.38,1.86,1.21,1.86,.73,0,1.17-.29,1.74-1.07v-6.83h3.25v10.41h-2.64l-.23-1.42h-.08c-.86,1.03-1.84,1.68-3.25,1.68-2.28,0-3.25-1.61-3.25-4.21Z"/><path class="cls-3" d="M194.74,30.39v-4.02h-1.4v-2.43l1.59-.1,.38-3.18h2.68v3.18h2.45v2.53h-2.45v3.98c0,1.17,.54,1.61,1.32,1.61,.33,0,.69-.04,.96-.15l.5,2.26c-.54,.21-1.34,.42-2.37,.42-2.6,0-3.67-1.65-3.67-4.11Z"/><path class="cls-3" d="M201.86,29.03c0-3.46,2.45-5.45,5.09-5.45s5.11,1.99,5.11,5.45-2.45,5.47-5.11,5.47-5.09-2.01-5.09-5.47Zm6.87,0c0-1.72-.57-2.85-1.78-2.85s-1.78,1.13-1.78,2.85,.57,2.85,1.78,2.85,1.78-1.11,1.78-2.85Z"/><path class="cls-3" d="M214.11,23.83h2.64l.23,1.3h.08c.84-.84,1.76-1.55,3.14-1.55s2.35,.61,2.87,1.72c.9-.92,1.86-1.72,3.25-1.72,2.26,0,3.27,1.61,3.27,4.21v6.45h-3.23v-6.03c0-1.45-.4-1.89-1.21-1.89-.5,0-1.05,.31-1.68,.94v6.98h-3.25v-6.03c0-1.45-.38-1.89-1.21-1.89-.48,0-1.05,.31-1.68,.94v6.98h-3.23v-10.41Z"/><path class="cls-3" d="M231.69,31.33c0-2.2,1.7-3.39,5.8-3.81-.08-.86-.52-1.36-1.59-1.36-.84,0-1.68,.29-2.72,.88l-1.13-2.09c1.36-.84,2.85-1.36,4.48-1.36,2.68,0,4.19,1.49,4.19,4.75v5.91h-2.64l-.23-1.05h-.08c-.86,.77-1.8,1.3-2.97,1.3-1.91,0-3.1-1.42-3.1-3.16Zm5.8-.17v-1.65c-2.07,.27-2.7,.84-2.7,1.57,0,.61,.4,.9,1.11,.9,.65,0,1.09-.31,1.59-.82Z"/><path class="cls-3" d="M243.67,30.39v-4.02h-1.4v-2.43l1.59-.1,.38-3.18h2.68v3.18h2.45v2.53h-2.45v3.98c0,1.17,.54,1.61,1.32,1.61,.33,0,.69-.04,.96-.15l.5,2.26c-.54,.21-1.34,.42-2.37,.42-2.6,0-3.67-1.65-3.67-4.11Z"/><path class="cls-3" d="M251.17,20.69c0-1.01,.75-1.65,1.82-1.65s1.82,.65,1.82,1.65-.75,1.68-1.82,1.68-1.82-.65-1.82-1.68Zm.21,3.14h3.23v10.41h-3.23v-10.41Z"/><path class="cls-3" d="M256.65,29.03c0-3.46,2.45-5.45,5.09-5.45s5.11,1.99,5.11,5.45-2.45,5.47-5.11,5.47-5.09-2.01-5.09-5.47Zm6.87,0c0-1.72-.57-2.85-1.78-2.85s-1.78,1.13-1.78,2.85,.57,2.85,1.78,2.85,1.78-1.11,1.78-2.85Z"/><path class="cls-3" d="M268.91,23.83h2.64l.23,1.3h.08c.86-.84,1.91-1.55,3.33-1.55,2.26,0,3.23,1.61,3.23,4.21v6.45h-3.25v-6.03c0-1.45-.38-1.89-1.21-1.89-.73,0-1.17,.36-1.82,.94v6.98h-3.23v-10.41Z"/></g><g><path class="cls-3" d="M45.23,51.96v-11.27h3.23v11.39c0,.67,.34,.88,.59,.88,.13,0,.21,0,.38-.04l.38,2.39c-.36,.15-.9,.27-1.61,.27-2.22,0-2.95-1.45-2.95-3.62Z"/><path class="cls-3" d="M50.85,52.42c0-2.2,1.7-3.39,5.8-3.81-.08-.86-.52-1.36-1.59-1.36-.84,0-1.68,.29-2.72,.88l-1.13-2.09c1.36-.84,2.85-1.36,4.48-1.36,2.68,0,4.19,1.49,4.19,4.75v5.91h-2.64l-.23-1.05h-.08c-.86,.77-1.8,1.3-2.97,1.3-1.91,0-3.1-1.42-3.1-3.16Zm5.8-.17v-1.65c-2.07,.27-2.7,.84-2.7,1.57,0,.61,.4,.9,1.11,.9,.65,0,1.09-.31,1.59-.82Z"/><path class="cls-3" d="M65.28,54.22h-.08l-.25,1.11h-2.53v-14.64h3.23v3.52l-.06,1.57c.77-.69,1.72-1.11,2.68-1.11,2.51,0,4.08,2.07,4.08,5.28,0,3.58-2.12,5.63-4.36,5.63-.94,0-1.89-.46-2.7-1.36Zm3.73-4.23c0-1.82-.54-2.68-1.7-2.68-.61,0-1.11,.27-1.68,.88v4.13c.52,.46,1.07,.61,1.57,.61,1.01,0,1.8-.82,1.8-2.93Z"/><path class="cls-3" d="M73.87,50.11c0-3.46,2.45-5.45,5.09-5.45s5.11,1.99,5.11,5.45-2.45,5.47-5.11,5.47-5.09-2.01-5.09-5.47Zm6.87,0c0-1.72-.57-2.85-1.78-2.85s-1.78,1.13-1.78,2.85,.57,2.85,1.78,2.85,1.78-1.11,1.78-2.85Z"/><path class="cls-3" d="M86.12,44.92h2.64l.23,1.8h.08c.75-1.4,1.91-2.05,2.95-2.05,.61,0,.96,.06,1.26,.21l-.61,2.74c-.38-.08-.61-.13-1.07-.13-.77,0-1.72,.5-2.26,1.89v5.95h-3.23v-10.41Z"/><path class="cls-3" d="M94.14,52.42c0-2.2,1.7-3.39,5.8-3.81-.08-.86-.52-1.36-1.59-1.36-.84,0-1.68,.29-2.72,.88l-1.13-2.09c1.36-.84,2.85-1.36,4.48-1.36,2.68,0,4.19,1.49,4.19,4.75v5.91h-2.64l-.23-1.05h-.08c-.86,.77-1.8,1.3-2.97,1.3-1.91,0-3.1-1.42-3.1-3.16Zm5.8-.17v-1.65c-2.07,.27-2.7,.84-2.7,1.57,0,.61,.4,.9,1.11,.9,.65,0,1.09-.31,1.59-.82Z"/><path class="cls-3" d="M106.12,51.47v-4.02h-1.4v-2.43l1.59-.1,.38-3.18h2.68v3.18h2.45v2.53h-2.45v3.98c0,1.17,.54,1.61,1.32,1.61,.33,0,.69-.04,.96-.15l.5,2.26c-.54,.21-1.34,.42-2.37,.42-2.6,0-3.67-1.65-3.67-4.11Z"/><path class="cls-3" d="M113.24,50.11c0-3.46,2.45-5.45,5.09-5.45s5.11,1.99,5.11,5.45-2.45,5.47-5.11,5.47-5.09-2.01-5.09-5.47Zm6.87,0c0-1.72-.57-2.85-1.78-2.85s-1.78,1.13-1.78,2.85,.57,2.85,1.78,2.85,1.78-1.11,1.78-2.85Z"/><path class="cls-3" d="M125.5,44.92h2.64l.23,1.8h.08c.75-1.4,1.91-2.05,2.95-2.05,.61,0,.96,.06,1.26,.21l-.61,2.74c-.38-.08-.61-.13-1.07-.13-.77,0-1.72,.5-2.26,1.89v5.95h-3.23v-10.41Z"/><path class="cls-3" d="M133.75,59.1l.57-2.39c.34,.08,.48,.11,.69,.11,1.01,0,1.51-.52,1.76-1.28l.15-.5-4-10.12h3.25l1.42,4.31c.29,.96,.52,1.93,.8,2.95h.08c.23-.98,.44-1.97,.71-2.95l1.19-4.31h3.1l-3.58,10.43c-1.03,2.68-2.14,4-4.63,4-.67,0-1.09-.08-1.51-.25Z"/></g><polygon class="cls-5" points="0 24.05 9.07 18.81 0 13.57 0 24.05"/><polygon class="cls-18" points="0 24.05 9.07 29.29 9.07 18.81 0 24.05"/><polygon class="cls-4" points="0 34.52 9.07 29.29 0 24.05 0 34.52"/><polygon class="cls-17" points="0 34.52 9.07 39.76 9.07 29.29 0 34.52"/><polygon class="cls-11" points="0 3.1 0 13.57 9.07 8.33 0 3.1 0 3.1"/><polygon class="cls-16" points="0 13.57 9.07 18.81 9.07 8.33 0 13.57"/><polygon class="cls-14" points="18.15 13.57 9.07 8.33 9.07 18.81 18.15 13.57"/><polygon class="cls-13" points="9.07 18.81 18.15 24.05 18.15 13.57 9.07 18.81"/><polygon class="cls-6" points="18.15 24.05 9.07 18.81 9.07 29.29 18.15 24.05"/><polygon class="cls-20" points="9.07 29.29 18.15 34.52 18.15 24.05 9.07 29.29"/><polygon class="cls-19" points="9.07 39.76 18.15 45 18.15 34.52 9.07 39.76"/><polygon class="cls-10" points="18.15 34.52 9.07 29.29 9.07 39.76 18.15 34.52"/><polygon class="cls-12" points="18.15 34.52 27.22 39.76 27.22 29.29 18.15 34.52"/><polygon class="cls-7" points="18.15 45 27.22 39.76 18.15 34.52 18.15 45"/><polygon class="cls-2" points="27.22 18.81 36.29 13.57 27.22 8.33 27.22 18.81"/><polygon class="cls-9" points="36.29 3.1 27.22 8.33 36.29 13.57 36.29 3.1 36.29 3.1"/><polygon class="cls-8" points="27.22 39.76 36.29 34.52 27.22 29.29 27.22 39.76"/><polygon class="cls-15" points="27.22 29.29 36.29 34.52 36.29 24.05 27.22 29.29"/></svg>